<svg xmlns="http://www.w3.org/2000/svg" width="1600" height="900" viewBox="0 0 1600 900" font-family="'Segoe UI', 'Noto Sans', Arial, sans-serif"><rect width="1600" height="900" fill="#FFFFFF"/><text x="64" y="72" font-size="40" fill="#1F1F1F" font-weight="700" text-anchor="start" >Máy chủ model: thông lượng theo độ đồng thời</text><text x="64" y="116" font-size="24" fill="#555555" font-weight="400" text-anchor="start" >Qwen3.6-35B-A3B FP8 trên GPUStack · câu hỏi ngắn, tối đa 256 token trả lời · 0 lỗi ở mọi mức</text><text x="64" y="190" font-size="28" fill="#1F1F1F" font-weight="600" text-anchor="start" >Tổng thông lượng (token/giây)</text><line x1="134" x2="770" y1="760" y2="760" stroke="#9A9A9A" stroke-width="2"/><text x="120" y="768" font-size="22" fill="#555555" font-weight="400" text-anchor="end" >0</text><line x1="134" x2="770" y1="654" y2="654" stroke="#E6E6E6" stroke-width="1"/><text x="120" y="662" font-size="22" fill="#555555" font-weight="400" text-anchor="end" >250</text><line x1="134" x2="770" y1="548" y2="548" stroke="#E6E6E6" stroke-width="1"/><text x="120" y="556" font-size="22" fill="#555555" font-weight="400" text-anchor="end" >500</text><line x1="134" x2="770" y1="442" y2="442" stroke="#E6E6E6" stroke-width="1"/><text x="120" y="450" font-size="22" fill="#555555" font-weight="400" text-anchor="end" >750</text><line x1="134" x2="770" y1="336" y2="336" stroke="#E6E6E6" stroke-width="1"/><text x="120" y="344" font-size="22" fill="#555555" font-weight="400" text-anchor="end" >1000</text><line x1="134" x2="770" y1="230" y2="230" stroke="#E6E6E6" stroke-width="1"/><text x="120" y="238" font-size="22" fill="#555555" font-weight="400" text-anchor="end" >1250</text><path d="M160.028,760 V729.4864 Q160.028,725.4864 164.028,725.4864 H231.172 Q235.172,725.4864 235.172,729.4864 V760 Z" fill="#C0501A"/><text x="197.6" y="711.4864" font-size="24" fill="#1F1F1F" font-weight="600" text-anchor="middle" >81</text><text x="197.6" y="798" font-size="24" fill="#1F1F1F" font-weight="400" text-anchor="middle" >1</text><path d="M287.228,760 V661.0952 Q287.228,657.0952 291.228,657.0952 H358.372 Q362.372,657.0952 362.372,661.0952 V760 Z" fill="#C0501A"/><text x="324.8" y="643.0952" font-size="24" fill="#1F1F1F" font-weight="600" text-anchor="middle" >243</text><text x="324.8" y="798" font-size="24" fill="#1F1F1F" font-weight="400" text-anchor="middle" >4</text><path d="M414.428,760 V579.6024 Q414.428,575.6024 418.428,575.6024 H485.572 Q489.572,575.6024 489.572,579.6024 V760 Z" fill="#C0501A"/><text x="452" y="561.6024" font-size="24" fill="#1F1F1F" font-weight="600" text-anchor="middle" >435</text><text x="452" y="798" font-size="24" fill="#1F1F1F" font-weight="400" text-anchor="middle" >8</text><path d="M541.628,760 V439.3432 Q541.628,435.3432 545.628,435.3432 H612.772 Q616.772,435.3432 616.772,439.3432 V760 Z" fill="#C0501A"/><text x="579.2" y="421.3432" font-size="24" fill="#1F1F1F" font-weight="600" text-anchor="middle" >766</text><text x="579.2" y="798" font-size="24" fill="#1F1F1F" font-weight="400" text-anchor="middle" >16</text><path d="M668.828,760 V269.3192 Q668.828,265.3192 672.828,265.3192 H739.972 Q743.972,265.3192 743.972,269.3192 V760 Z" fill="#C0501A"/><text x="706.4" y="251.31920000000002" font-size="24" fill="#1F1F1F" font-weight="600" text-anchor="middle" >1167</text><text x="706.4" y="798" font-size="24" fill="#1F1F1F" font-weight="400" text-anchor="middle" >32</text><text x="452" y="840" font-size="22" fill="#555555" font-weight="400" text-anchor="middle" >Số yêu cầu gửi đồng thời tới máy chủ model</text><text x="860" y="190" font-size="28" fill="#1F1F1F" font-weight="600" text-anchor="start" >Tốc độ mỗi yêu cầu, trung vị (token/giây)</text><line x1="930" x2="1540" y1="760" y2="760" stroke="#9A9A9A" stroke-width="2"/><text x="916" y="768" font-size="22" fill="#555555" font-weight="400" text-anchor="end" >0</text><line x1="930" x2="1540" y1="654" y2="654" stroke="#E6E6E6" stroke-width="1"/><text x="916" y="662" font-size="22" fill="#555555" font-weight="400" text-anchor="end" >28</text><line x1="930" x2="1540" y1="548" y2="548" stroke="#E6E6E6" stroke-width="1"/><text x="916" y="556" font-size="22" fill="#555555" font-weight="400" text-anchor="end" >56</text><line x1="930" x2="1540" y1="442" y2="442" stroke="#E6E6E6" stroke-width="1"/><text x="916" y="450" font-size="22" fill="#555555" font-weight="400" text-anchor="end" >84</text><line x1="930" x2="1540" y1="336" y2="336" stroke="#E6E6E6" stroke-width="1"/><text x="916" y="344" font-size="22" fill="#555555" font-weight="400" text-anchor="end" >112</text><line x1="930" x2="1540" y1="230" y2="230" stroke="#E6E6E6" stroke-width="1"/><text x="916" y="238" font-size="22" fill="#555555" font-weight="400" text-anchor="end" >140</text><path d="M955.04,760 V280.1857142857143 Q955.04,276.1857142857143 959.04,276.1857142857143 H1022.96 Q1026.96,276.1857142857143 1026.96,280.1857142857143 V760 Z" fill="#E07B39"/><text x="991" y="262.1857142857143" font-size="24" fill="#1F1F1F" font-weight="600" text-anchor="middle" >128</text><text x="991" y="798" font-size="24" fill="#1F1F1F" font-weight="400" text-anchor="middle" >1</text><path d="M1077.04,760 V397.1642857142857 Q1077.04,393.1642857142857 1081.04,393.1642857142857 H1144.96 Q1148.96,393.1642857142857 1148.96,397.1642857142857 V760 Z" fill="#E07B39"/><text x="1113" y="379.1642857142857" font-size="24" fill="#1F1F1F" font-weight="600" text-anchor="middle" >97</text><text x="1113" y="798" font-size="24" fill="#1F1F1F" font-weight="400" text-anchor="middle" >4</text><path d="M1199.04,760 V429.7214285714286 Q1199.04,425.7214285714286 1203.04,425.7214285714286 H1266.96 Q1270.96,425.7214285714286 1270.96,429.7214285714286 V760 Z" fill="#E07B39"/><text x="1235" y="411.7214285714286" font-size="24" fill="#1F1F1F" font-weight="600" text-anchor="middle" >88</text><text x="1235" y="798" font-size="24" fill="#1F1F1F" font-weight="400" text-anchor="middle" >8</text><path d="M1321.04,760 V466.0642857142857 Q1321.04,462.0642857142857 1325.04,462.0642857142857 H1388.96 Q1392.96,462.0642857142857 1392.96,466.0642857142857 V760 Z" fill="#E07B39"/><text x="1357" y="448.0642857142857" font-size="24" fill="#1F1F1F" font-weight="600" text-anchor="middle" >79</text><text x="1357" y="798" font-size="24" fill="#1F1F1F" font-weight="400" text-anchor="middle" >16</text><path d="M1443.04,760 V523.2285714285714 Q1443.04,519.2285714285714 1447.04,519.2285714285714 H1510.96 Q1514.96,519.2285714285714 1514.96,523.2285714285714 V760 Z" fill="#E07B39"/><text x="1479" y="505.2285714285714" font-size="24" fill="#1F1F1F" font-weight="600" text-anchor="middle" >64</text><text x="1479" y="798" font-size="24" fill="#1F1F1F" font-weight="400" text-anchor="middle" >32</text><text x="1235" y="840" font-size="22" fill="#555555" font-weight="400" text-anchor="middle" >Số yêu cầu gửi đồng thời tới máy chủ model</text></svg>